<svg width="95" height="95" viewBox="0 0 95 95" fill="none" xmlns="http://www.w3.org/2000/svg">
<path d="M76.5263 66.3766C81.0535 66.3766 84.7235 62.0414 84.7235 56.6937C84.7235 51.3459 81.0535 47.0107 76.5263 47.0107C71.9991 47.0107 68.3291 51.3459 68.3291 56.6937C68.3291 62.0414 71.9991 66.3766 76.5263 66.3766Z" fill="#BCB6F5"/>
<path fill-rule="evenodd" clip-rule="evenodd" d="M85.6594 52.7982C85.6591 50.8874 84.8841 49.0549 83.5049 47.7038C82.1256 46.3528 80.2551 45.5938 78.3047 45.5938H74.7478C73.782 45.5936 72.8256 45.7799 71.9333 46.1419C71.041 46.5039 70.2302 47.0345 69.5473 47.7035C68.8643 48.3726 68.3225 49.1668 67.9529 50.0409C67.5833 50.9151 67.3931 51.852 67.3931 52.7982V59.6798C67.3938 62.0524 68.3564 64.3276 70.0691 66.005C71.7818 67.6824 74.1044 68.6247 76.5262 68.6247C78.9478 68.6247 81.2702 67.6824 82.9826 66.0049C84.695 64.3274 85.6572 62.0522 85.6574 59.6798L85.6594 52.7982ZM83.1304 52.7982V59.6798C83.1303 60.5294 82.9593 61.3706 82.6274 62.1554C82.2955 62.9402 81.8089 63.6533 81.1957 64.254C80.5825 64.8546 79.8544 65.331 79.0532 65.656C78.2521 65.981 77.3934 66.1482 76.5262 66.1481C74.7754 66.1473 73.0965 65.4656 71.8586 64.2527C70.6205 63.0399 69.9247 61.3951 69.924 59.6798V52.7982C69.9242 51.5445 70.4327 50.3422 71.3377 49.4558C72.2427 48.5693 73.47 48.0714 74.7497 48.0714H78.3066C79.5863 48.0714 80.8136 48.5693 81.7186 49.4558C82.6235 50.3422 83.1321 51.5445 83.1323 52.7982H83.1304Z" fill="#6165DE"/>
<path fill-rule="evenodd" clip-rule="evenodd" d="M71.6871 69.5585C71.1325 69.2781 70.5281 69.1139 69.9098 69.0755C69.2915 69.0372 68.672 69.1255 68.0879 69.3353H68.0763C64.8924 70.5133 62.1425 72.6586 60.2001 75.4798C58.2576 78.301 57.2167 81.6613 57.2188 85.1045V90.2675C57.219 91.5227 57.7099 92.7263 58.5834 93.6137C59.4569 94.5012 60.6415 94.9997 61.8767 94.9997H90.343C91.578 94.9994 92.7624 94.5008 93.6357 93.6134C94.509 92.726 94.9997 91.7414 95 90.4865V85.1045C95.0001 81.6616 93.9584 78.3021 92.016 75.4812C90.0736 72.6603 87.3245 70.5147 84.1415 69.3353L84.1279 69.3303C83.5407 69.1195 82.9176 69.0312 82.2961 69.0707C81.6745 69.1102 81.0671 69.2768 80.5104 69.5605C79.138 70.2343 77.633 70.5827 76.1089 70.5793C74.5791 70.582 73.0683 70.2341 71.689 69.5614L71.6871 69.5585ZM70.5645 71.8735L70.5829 71.8833C72.3062 72.7271 74.195 73.1641 76.1079 73.1618C78.0219 73.1657 79.9117 72.7268 81.6339 71.8784L81.6475 71.8715C81.8982 71.7421 82.172 71.6655 82.4526 71.6463C82.7331 71.627 83.0146 71.6655 83.2802 71.7594C85.9731 72.7581 88.2987 74.5742 89.9416 76.9614C91.5845 79.3486 92.4652 82.1914 92.4644 85.1045V90.2675C92.4645 90.55 92.4099 90.8298 92.3035 91.0908C92.1972 91.3519 92.0414 91.5891 91.8448 91.7889C91.6483 91.9887 91.4149 92.1472 91.158 92.2554C90.9012 92.3635 90.6259 92.4192 90.3479 92.4192H61.8767C61.5986 92.4193 61.3232 92.3638 61.0662 92.2557C60.8092 92.1476 60.5758 91.9891 60.3791 91.7893C60.1824 91.5894 60.0265 91.3522 59.9201 91.0911C59.8137 90.8299 59.759 90.5501 59.7592 90.2675V85.1045C59.7585 82.1932 60.6389 79.3522 62.2809 76.9666C63.9229 74.581 66.2472 72.7662 68.9386 71.7682C69.2028 71.6746 69.4828 71.6357 69.762 71.6538C70.0412 71.6719 70.3141 71.7466 70.5645 71.8735Z" fill="#6165DE"/>
<path d="M15.0781 17.9844C15.0781 16.3793 16.3793 15.0781 17.9844 15.0781H44.1406C45.7457 15.0781 47.0469 16.3793 47.0469 17.9844C47.0469 19.5895 45.7457 20.8906 44.1406 20.8906H17.9844C16.3793 20.8906 15.0781 19.5895 15.0781 17.9844Z" fill="#BCB6F5"/>
<path d="M15.0781 32.5156C15.0781 30.9105 16.3793 29.6094 17.9844 29.6094H60.125C61.7301 29.6094 63.0312 30.9105 63.0312 32.5156C63.0312 34.1207 61.7301 35.4219 60.125 35.4219H17.9844C16.3793 35.4219 15.0781 34.1207 15.0781 32.5156Z" fill="#BCB6F5"/>
<path d="M15.0781 47.0469C15.0781 45.4418 16.3793 44.1406 17.9844 44.1406H60.125C61.7301 44.1406 63.0312 45.4418 63.0312 47.0469C63.0312 48.6519 61.7301 49.9531 60.125 49.9531H17.9844C16.3793 49.9531 15.0781 48.6519 15.0781 47.0469Z" fill="#BCB6F5"/>
<path d="M15.0781 61.5781C15.0781 59.973 16.3793 58.6719 17.9844 58.6719H51.4062C53.0113 58.6719 54.3125 59.973 54.3125 61.5781C54.3125 63.1832 53.0113 64.4844 51.4062 64.4844H17.9844C16.3793 64.4844 15.0781 63.1832 15.0781 61.5781Z" fill="#BCB6F5"/>
<path d="M49.2266 90.6406H6C3.79086 90.6406 2 88.8497 2 86.6406V6C2 3.79086 3.79086 2 6 2H76.4687C78.6779 2 80.4687 3.79086 80.4687 6V37.6016" stroke="#6165DE" stroke-width="4" stroke-linecap="round"/>
</svg>
