<svg width="15" height="16" viewBox="0 0 15 16" fill="none" xmlns="http://www.w3.org/2000/svg">
<g clip-path="url(#clip0_1_2)">
<path d="M7.85 8.81667V0.833333C7.85 0.366667 7.48333 0 7.01667 0C6.55 0 6.18333 0.366667 6.18333 0.833333V8.81667L3.43333 6.06667C3.1 5.73333 2.58333 5.73333 2.25 6.06667C1.91667 6.4 1.91667 6.91667 2.25 7.25L7 12L11.75 7.25C12.0833 6.91667 12.0833 6.4 11.75 6.06667C11.4167 5.73333 10.9 5.73333 10.5667 6.06667L7.81667 8.81667H7.85Z" fill="white"/>
<path d="M0.833333 11C1.3 11 1.66667 11.3667 1.66667 11.8333V13.1667C1.66667 13.8167 2.18333 14.3333 2.83333 14.3333H12.1667C12.8167 14.3333 13.3333 13.8167 13.3333 13.1667V11.8333C13.3333 11.3667 13.7 11 14.1667 11C14.6333 11 15 11.3667 15 11.8333V13.1667C15 14.7333 13.7333 16 12.1667 16H2.83333C1.26667 16 0 14.7333 0 13.1667V11.8333C0 11.3667 0.366667 11 0.833333 11Z" fill="white"/>
</g>
<defs>
<clipPath id="clip0_1_2">
<rect width="15" height="16" fill="white"/>
</clipPath>
</defs>
</svg>
