<svg width="11" height="12" viewBox="0 0 11 12" fill="none" xmlns="http://www.w3.org/2000/svg">
<path d="M3.76258 4.82602L3.75819 4.81984L3.75362 4.81378L0.501683 0.509653L0.500534 0.507871L0.500219 0.507195L0.500032 0.506009C0.499936 0.504644 0.500053 0.502516 0.500593 0.5H10.4967C10.4993 0.50644 10.5002 0.512704 10.5 0.516857C10.4999 0.518185 10.4998 0.519055 10.4996 0.519552L7.25669 4.81178C7.12887 4.97781 7.03949 5.17114 6.99325 5.37411C6.85724 5.16458 6.62549 5.01785 6.34314 5.01785H3.87809C3.84468 4.95157 3.80619 4.88755 3.76258 4.82602ZM6.34314 6.61437C6.60164 6.61437 6.81773 6.49139 6.95676 6.30981V10.1449L4.05203 11.4087V6.61437H6.34314Z" stroke="#6165DE"/>
</svg>
