<svg width="117" height="128" viewBox="0 0 117 128" fill="none" xmlns="http://www.w3.org/2000/svg">
<path d="M59.7847 37.6829C59.7847 29.1721 52.865 22.25 44.3593 22.25C35.8537 22.25 28.9316 29.1721 28.9316 37.6829C28.9316 46.1937 35.8514 53.1135 44.3593 53.1135C52.8673 53.1135 59.7847 46.1914 59.7847 37.6829ZM43.0741 24.888V36.9413L32.6405 42.945C31.9176 41.3379 31.5045 39.5586 31.5045 37.6852C31.5045 31.0271 36.5881 25.5377 43.0741 24.8903V24.888ZM33.9258 45.1674L45.6446 38.4268V24.888C52.1306 25.5354 57.2142 31.0248 57.2142 37.6829C57.2142 44.7726 51.4466 50.5421 44.3593 50.5421C40.0629 50.5421 36.2599 48.4138 33.9258 45.1651V45.1674Z" fill="#6165DE" stroke="#6165DE"/>
<path d="M75.2951 32.9541H65.1232V53.1073H75.2951V32.9541ZM72.7246 50.5359H67.6914V35.5255H72.7246V50.5359Z" fill="#6165DE" stroke="#6165DE"/>
<path d="M79.4146 53.1418H89.5865V24.1035H79.4146V53.1418ZM81.9851 26.6749H87.0182V50.5704H81.9851V26.6749Z" fill="#6165DE" stroke="#6165DE"/>
<path d="M43.1499 73.8003H75.3709V63.0166H43.1499V73.8003ZM45.7204 65.5857H72.8004V71.229H45.7204V65.5857Z" fill="#6165DE" stroke="#6165DE"/>
<path d="M33.4849 83.6992H85.0306V86.2706H33.4849V83.6992Z" fill="#6165DE" stroke="#6165DE"/>
<path d="M41.8486 93.4365H76.6677V96.0079H41.8486V93.4365Z" fill="#6165DE" stroke="#6165DE"/>
<path d="M51.2009 103.171H67.3194V105.742H51.2009V103.171Z" fill="#6165DE" stroke="#6165DE"/>
<path d="M115.574 88.7622L98.4066 55.8531V15.627C98.4066 13.5768 96.738 11.9077 94.6862 11.9077H75.4808L70.8309 2.99739C69.8807 1.17906 67.6315 0.474224 65.8138 1.42013L45.7248 11.9077H23.8295C21.7799 11.9077 20.1114 13.5768 20.1114 15.627V25.2789L2.99909 34.2144C2.11777 34.6736 1.47056 35.4496 1.17219 36.3978C0.876123 37.346 0.963337 38.3516 1.42236 39.2332L20.1114 75.0581V112.368C20.1114 114.419 21.7799 116.088 23.8295 116.088H41.5132L46.1608 124.998C46.6198 125.88 47.3956 126.527 48.3435 126.826C48.7107 126.94 49.0871 127 49.4612 127C50.051 127 50.6386 126.858 51.1779 126.575L71.2693 116.09H94.6885C96.7403 116.09 98.4089 114.421 98.4089 112.371V101.924L114.002 93.7855C114.883 93.3264 115.53 92.5481 115.829 91.6022C116.125 90.6471 116.035 89.6415 115.574 88.7622ZM67.005 3.69993C67.5673 3.40606 68.2627 3.62646 68.5542 4.18666L72.5821 11.9077H51.2835L67.005 3.69993ZM3.7014 38.0417C3.5591 37.7707 3.53156 37.4585 3.62336 37.1669C3.71517 36.8731 3.91714 36.6343 4.18796 36.4942L20.1114 28.1809V69.4998L3.7014 38.0417ZM49.9914 124.291C49.7205 124.436 49.4084 124.465 49.1169 124.369C48.8231 124.277 48.5845 124.077 48.4445 123.806L44.4188 116.085H65.7151L49.9914 124.291ZM95.8383 112.366C95.8383 112.997 95.3242 113.514 94.6885 113.514H23.8318C23.1983 113.514 22.6842 113 22.6842 112.366V15.6247C22.6842 14.9911 23.1983 14.4768 23.8318 14.4768H94.6885C95.3219 14.4768 95.8383 14.9911 95.8383 15.6247V112.366ZM113.375 90.8262C113.283 91.12 113.081 91.3588 112.813 91.4988L98.4112 99.0178V61.4091L113.299 89.9514C113.442 90.2223 113.469 90.5346 113.378 90.8239L113.375 90.8262Z" fill="#6165DE" stroke="#6165DE"/>
</svg>
