<svg width="97" height="114" viewBox="0 0 97 114" fill="none" xmlns="http://www.w3.org/2000/svg">
<g clip-path="url(#clip0_972_11471)">
<rect x="2" y="3" width="76" height="15" fill="#BCB5F7"/>
<rect x="2" y="6" width="16" height="90" fill="#BCB5F7"/>
<path d="M91.4595 15.1088H81.7592V5.49409C81.7592 2.47234 79.2649 0 76.2187 0H5.543C2.49435 0 0 2.47234 0 5.49409V93.3996C0 96.4213 2.49435 98.8937 5.543 98.8937H15.2432V108.508C15.2432 111.53 17.7351 114.002 20.7862 114.002H67.8993C70.9454 114.002 75.2586 112.308 77.4783 110.238L92.9615 95.791C95.1837 93.7209 96.9975 89.5537 96.9975 86.532L97.0025 20.6053C97.0025 17.5836 94.5081 15.1112 91.4595 15.1112H91.462L91.4595 15.1088ZM5.543 94.7731C4.79073 94.7731 4.15725 94.1428 4.15725 93.3996V5.49409C4.15725 4.74847 4.79321 4.12057 5.543 4.12057H76.2187C76.9685 4.12057 77.6045 4.75092 77.6045 5.49409V15.1063H20.7862C17.7376 15.1063 15.2432 17.5786 15.2432 20.6004V94.7707H5.543V94.7731ZM20.7862 109.884C20.034 109.884 19.4005 109.254 19.4005 108.511V20.6029C19.4005 19.8572 20.034 19.2293 20.7862 19.2293H91.4595C92.2117 19.2293 92.8452 19.8597 92.8452 20.6029V86.532C92.8428 86.9391 92.7685 87.4125 92.6547 87.9055H76.9066C72.6999 87.9128 69.2924 91.2903 69.285 95.4599V109.715C68.7901 109.813 68.3125 109.882 67.8993 109.882H20.7862V109.884ZM74.63 107.24C74.3133 107.535 73.9 107.826 73.4447 108.101V95.4623C73.4447 94.518 73.8283 93.6694 74.4618 93.039C75.1002 92.4111 75.9564 92.0285 76.9091 92.0285H90.774C90.5587 92.3179 90.3385 92.5853 90.1158 92.7938L74.6325 107.238L74.63 107.24Z" fill="#6165DE"/>
<path d="M36.032 38.4585H76.2187C77.3669 38.4585 78.2974 37.5362 78.2974 36.3982C78.2974 35.2601 77.3669 34.3379 76.2187 34.3379H36.032C34.8838 34.3379 33.9534 35.2601 33.9534 36.3982C33.9534 37.5362 34.8813 38.4585 36.032 38.4585Z" fill="#6165DE"/>
<path d="M36.032 65.9292H76.2187C77.3669 65.9292 78.2974 65.0069 78.2974 63.8689C78.2974 62.7308 77.3669 61.8086 76.2187 61.8086H36.032C34.8838 61.8086 33.9534 62.7308 33.9534 63.8689C33.9534 65.0069 34.8813 65.9292 36.032 65.9292Z" fill="#6165DE"/>
<path d="M58.2015 75.5439H36.0296C34.8814 75.5439 33.9509 76.4662 33.9509 77.6042C33.9509 78.7423 34.8814 79.6645 36.0296 79.6645H58.2015C59.3497 79.6645 60.2777 78.7423 60.2777 77.6042C60.2777 76.4662 59.3473 75.5439 58.2015 75.5439Z" fill="#6165DE"/>
<path d="M36.032 52.1938H76.2187C77.3669 52.1938 78.2974 51.2716 78.2974 50.1335C78.2974 48.9955 77.3669 48.0732 76.2187 48.0732H36.032C34.8838 48.0732 33.9534 48.9955 33.9534 50.1335C33.9534 51.2716 34.8813 52.1938 36.032 52.1938Z" fill="#6165DE"/>
</g>
<defs>
<clipPath id="clip0_972_11471">
<rect width="97" height="114" fill="white"/>
</clipPath>
</defs>
</svg>
