<svg width="22" height="15" viewBox="0 0 22 15" fill="none" xmlns="http://www.w3.org/2000/svg">
<path d="M8.06667 0C5.37533 0 3.17778 2.2475 3.17778 5C3.17778 5.11 3.20222 5.2125 3.20711 5.32C1.33711 6.0225 0 7.85 0 10C0 12.7525 2.19756 15 4.88889 15C5.29467 15.005 5.62711 14.675 5.632 14.26C5.63689 13.845 5.31422 13.505 4.90844 13.5C4.90111 13.5 4.89378 13.5 4.88889 13.5C2.98956 13.5 1.46667 11.9425 1.46667 10C1.46667 8.3175 2.62044 6.93 4.15556 6.585C4.54667 6.495 4.79356 6.1025 4.71289 5.7025C4.66889 5.475 4.64444 5.2375 4.64444 5C4.64444 3.0575 6.16733 1.5 8.06667 1.5C9.34756 1.5 10.4573 2.2125 11.0464 3.2725C11.2053 3.655 11.6356 3.8325 12.0071 3.67C12.3811 3.5075 12.5547 3.0675 12.3958 2.6875C12.3738 2.635 12.3469 2.585 12.3127 2.5375C11.4742 1.0275 9.88533 0 8.06667 0ZM14.0947 1.8125C13.6913 1.8425 13.3882 2.2025 13.4176 2.615C13.442 2.97 13.7109 3.26 14.058 3.305C15.3976 3.55 16.4682 4.6 16.7762 5.945C16.8471 6.26 17.1087 6.495 17.4264 6.5225C19.1767 6.6825 20.5358 8.1625 20.5358 10C20.5358 11.9425 19.0129 13.5 17.1136 13.5H11.7358V7.0225L13.3784 8.9825C13.6424 9.2975 14.1069 9.3325 14.4149 9.06C14.7204 8.79 14.7571 8.32 14.4956 8.005L11.5622 4.505C11.4156 4.3325 11.198 4.2375 10.9731 4.2475C10.7702 4.255 10.5796 4.3475 10.4451 4.505L7.51178 8.005C7.25022 8.32 7.28689 8.795 7.59489 9.0625C7.90289 9.33 8.36244 9.2925 8.62644 8.98L10.2691 7.02V13.4975H7.33578C6.93 13.4925 6.59756 13.8225 6.59267 14.2375C6.58778 14.6525 6.91044 14.9925 7.31622 14.9975C7.32356 14.9975 7.33089 14.9975 7.33578 14.9975H17.1136C19.8049 14.9975 22.0024 12.75 22.0024 9.9975C22.0024 7.56 20.2742 5.54 18.0082 5.1075C17.4313 3.435 16.0624 2.1475 14.3196 1.8275C14.2707 1.8175 14.2242 1.8125 14.1753 1.8125C14.1509 1.8125 14.124 1.8125 14.0996 1.8125H14.0947Z" fill="#2514BE"/>
</svg>
